# xmcd CD database file
#
# Track frame offsets:
#	182
#	16397
#	30692
#	42285
#	55462
#	71197
#	86070
#	101850
#	118680
#	138930
#	160507
#	182405
#	208717
#	221502
#	235890
#	253607
#	270435
#	288907
#	307045
#	325035
#	338945
#
# Disc length: 4756 seconds
#
# Revision: 2
# Processed by: cddbd v1.5.1PL0 Copyright (c) Steve Scherf et al.
# Submitted via: CDex 1.51
#
DISCID=34129215
DTITLE=Millie Jackson - 21 of The Best (1971-1983)
DYEAR=1994
DGENRE=Soul
TTITLE0=A Child Of God (It's Hard To Believe)
TTITLE1=Ask Me What You Want
TTITLE2=My Man, A Sweet Man
TTITLE3=Breakaway
TTITLE4=It Hurts So Good
TTITLE5=How Do You Feel The Morning After
TTITLE6=(If Loving You Is Wrong) I Dont Wanna Be Right
TTITLE7=Loving Arms
TTITLE8=Bad Risk
TTITLE9=You Can't Turn Me Off
TTITLE10=If You're Back In Love By Monday
TTITLE11=All The Way Lover
TTITLE12=Go Out And Get Some
TTITLE13=Keep The Home Fire Burning
TTITLE14=Never Change Lovers In The Middle Of The Night
TTITLE15=Kiss You All Over
TTITLE16=This Is It (Pt2)
TTITLE17=It's Gonna Take Some Time This Time
TTITLE18=Do You Wanna Make Love
TTITLE19=The Blues Don't Get Tired Of Me
TTITLE20=I Feel Like Walking In The Rain
EXTD=YEAR: 1994
EXTT0=
EXTT1=
EXTT2=
EXTT3=
EXTT4=
EXTT5=
EXTT6=
EXTT7=
EXTT8=
EXTT9=
EXTT10=
EXTT11=
EXTT12=
EXTT13=
EXTT14=
EXTT15=
EXTT16=
EXTT17=
EXTT18=
EXTT19=
EXTT20=
PLAYORDER=
